# Blender v2.72 (sub 0) OBJ File: 'untitled.blend'
# www.blender.org
mtllib bucket.mtl
o Cone
v -0.148847 3.273721 -2.814515
v -0.539028 3.273721 -2.776086
v -0.914214 3.273721 -2.662274
v -1.259988 3.273721 -2.477454
v -1.563061 3.273721 -2.228729
v -1.811787 3.273721 -1.925656
v -1.996606 3.273721 -1.579882
v -2.110418 3.273721 -1.204696
v -2.148847 3.273721 -0.814515
v -2.110418 3.273721 -0.424335
v -1.996606 3.273721 -0.049149
v -1.811787 3.273721 0.296625
v -1.563061 3.273721 0.599698
v -1.259988 3.273721 0.848424
v -0.914214 3.273721 1.033244
v -0.539027 3.273721 1.147055
v -0.148847 3.273721 1.185485
v 0.241334 3.273721 1.147055
v 0.616520 3.273721 1.033243
v 0.962294 3.273721 0.848423
v 1.265367 3.273721 0.599697
v 1.514093 3.273720 0.296624
v 1.698912 3.273720 -0.049150
v 1.812724 3.273720 -0.424336
v 1.851153 3.273720 -0.814517
v 1.812723 3.273720 -1.204698
v 1.698911 3.273720 -1.579884
v 1.514091 3.273720 -1.925658
v 1.265364 3.273721 -2.228731
v 0.962291 3.273721 -2.477456
v 0.616517 3.273721 -2.662275
v 0.241330 3.273721 -2.776086
v -0.705478 0.000994 -2.158340
v -0.775057 1.091903 -2.326318
v -0.844636 2.182812 -2.494296
v -0.432616 0.000994 -2.241112
v -0.468086 1.091903 -2.419436
v -0.503557 2.182812 -2.597761
v -0.148847 2.182812 -2.632697
v -0.148848 1.091903 -2.450879
v -0.148848 0.000993 -2.269061
v 0.134918 0.000994 -2.241112
v 0.170389 1.091903 -2.419437
v 0.205859 2.182812 -2.597762
v 0.407781 0.000994 -2.158341
v 0.477359 1.091903 -2.326319
v 0.546938 2.182812 -2.494297
v 0.659253 0.000993 -2.023927
v 0.760266 1.091903 -2.175103
v 0.861278 2.182812 -2.326280
v 0.879670 0.000993 -1.843035
v 1.008235 1.091903 -1.971601
v 1.136800 2.182812 -2.100166
v 1.060562 0.000993 -1.622619
v 1.211738 1.091903 -1.723632
v 1.362914 2.182812 -1.824645
v -1.603393 0.000994 -0.814515
v -1.785211 1.091903 -0.814515
v -1.967029 2.182812 -0.814515
v 1.194976 0.000993 -1.371147
v 1.362954 1.091903 -1.440726
v 1.530933 2.182811 -1.510305
v 1.277749 0.000993 -1.098284
v 1.456073 1.091902 -1.133756
v 1.634398 2.182811 -1.169227
v 1.305698 0.000993 -0.814517
v 1.487516 1.091902 -0.814517
v 1.669334 2.182811 -0.814517
v 1.277749 0.000993 -0.530749
v 1.456074 1.091902 -0.495278
v 1.634399 2.182811 -0.459807
v 1.194978 0.000993 -0.257886
v 1.362956 1.091903 -0.188307
v 1.530934 2.182811 -0.118729
v 1.060563 0.000993 -0.006414
v 1.211740 1.091903 0.094599
v 1.362916 2.182812 0.195611
v 0.879672 0.000993 0.214003
v 1.008237 1.091903 0.342568
v 1.136802 2.182812 0.471133
v 0.659255 0.000993 0.394895
v 0.760268 1.091903 0.546071
v 0.861281 2.182812 0.697247
v 0.407783 0.000994 0.529309
v 0.477362 1.091903 0.697287
v 0.546941 2.182812 0.865265
v 0.134921 0.000994 0.612081
v 0.170392 1.091903 0.790406
v 0.205863 2.182812 0.968731
v -0.148847 0.000994 0.640030
v -0.148847 1.091903 0.821848
v -0.148847 2.182812 1.003666
v -0.432615 0.000994 0.612082
v -0.468086 1.091903 0.790406
v -0.503557 2.182812 0.968731
v -0.705478 0.000994 0.529310
v -0.775057 1.091903 0.697288
v -0.844635 2.182812 0.865266
v -0.956950 0.000994 0.394895
v -1.057963 1.091903 0.546072
v -1.158975 2.182812 0.697248
v -1.177367 0.000994 0.214004
v -1.305931 1.091903 0.342569
v -1.434496 2.182812 0.471133
v -1.358258 0.000994 -0.006413
v -1.509434 1.091903 0.094600
v -1.660611 2.182812 0.195612
v -1.492673 0.000994 -0.257885
v -1.660651 1.091903 -0.188306
v -1.828628 2.182812 -0.118728
v -1.575445 0.000994 -0.530748
v -1.753769 1.091903 -0.495277
v -1.932094 2.182812 -0.459806
v -1.575445 0.000994 -1.098283
v -1.753769 1.091903 -1.133754
v -1.932093 2.182812 -1.169225
v -1.492673 0.000994 -1.371146
v -1.660650 1.091903 -1.440725
v -1.828628 2.182812 -1.510303
v -1.358258 0.000994 -1.622617
v -1.509434 1.091903 -1.723630
v -1.660611 2.182812 -1.824643
v -1.177367 0.000994 -1.843034
v -1.305931 1.091903 -1.971599
v -1.434496 2.182812 -2.100164
v -0.956950 0.000994 -2.023926
v -1.057963 1.091903 -2.175102
v -1.158975 2.182812 -2.326278
vn 0.286400 -0.163600 -0.944000
vn -0.096700 -0.163600 -0.981800
vn 0.465000 -0.163600 -0.870000
vn 0.625800 -0.163600 -0.762600
vn 0.762600 -0.163600 -0.625800
vn 0.870000 -0.163600 -0.465000
vn 0.944000 -0.163600 -0.286400
vn 0.981800 -0.163600 -0.096700
vn 0.981800 -0.163600 0.096700
vn 0.944000 -0.163600 0.286400
vn 0.870000 -0.163600 0.465000
vn 0.762600 -0.163600 0.625800
vn 0.625800 -0.163600 0.762600
vn 0.465000 -0.163600 0.870000
vn 0.286400 -0.163600 0.944000
vn 0.096700 -0.163600 0.981800
vn -0.096700 -0.163600 0.981800
vn -0.286400 -0.163600 0.944000
vn -0.465000 -0.163600 0.870000
vn -0.625800 -0.163600 0.762600
vn -0.762600 -0.163600 0.625800
vn -0.870000 -0.163600 0.465000
vn -0.944000 -0.163600 0.286400
vn -0.981800 -0.163600 0.096700
vn -0.981800 -0.163600 -0.096700
vn -0.944000 -0.163600 -0.286400
vn -0.870000 -0.163600 -0.465000
vn -0.762600 -0.163600 -0.625800
vn -0.625800 -0.163600 -0.762600
vn -0.465000 -0.163600 -0.870000
vn 0.096700 -0.163600 -0.981800
vn -0.286400 -0.163600 -0.944000
vn -0.000000 -1.000000 0.000000
usemtl Material
s off
f 31//1 47//1 44//1 32//1
f 47//1 46//1 43//1 44//1
f 46//1 45//1 42//1 43//1
f 1//2 39//2 38//2 2//2
f 39//2 40//2 37//2 38//2
f 40//2 41//2 36//2 37//2
f 30//3 50//3 47//3 31//3
f 50//3 49//3 46//3 47//3
f 49//3 48//3 45//3 46//3
f 29//4 53//4 50//4 30//4
f 53//4 52//4 49//4 50//4
f 52//4 51//4 48//4 49//4
f 28//5 56//5 53//5 29//5
f 56//5 55//5 52//5 53//5
f 55//5 54//5 51//5 52//5
f 27//6 62//6 56//6 28//6
f 62//6 61//6 55//6 56//6
f 61//6 60//6 54//6 55//6
f 26//7 65//7 62//7 27//7
f 65//7 64//7 61//7 62//7
f 64//7 63//7 60//7 61//7
f 25//8 68//8 65//8 26//8
f 68//8 67//8 64//8 65//8
f 67//8 66//8 63//8 64//8
f 24//9 71//9 68//9 25//9
f 71//9 70//9 67//9 68//9
f 70//9 69//9 66//9 67//9
f 23//10 74//10 71//10 24//10
f 74//10 73//10 70//10 71//10
f 73//10 72//10 69//10 70//10
f 22//11 77//11 74//11 23//11
f 77//11 76//11 73//11 74//11
f 76//11 75//11 72//11 73//11
f 21//12 80//12 77//12 22//12
f 80//12 79//12 76//12 77//12
f 79//12 78//12 75//12 76//12
f 20//13 83//13 80//13 21//13
f 83//13 82//13 79//13 80//13
f 82//13 81//13 78//13 79//13
f 19//14 86//14 83//14 20//14
f 86//14 85//14 82//14 83//14
f 85//14 84//14 81//14 82//14
f 18//15 89//15 86//15 19//15
f 89//15 88//15 85//15 86//15
f 88//15 87//15 84//15 85//15
f 17//16 92//16 89//16 18//16
f 92//16 91//16 88//16 89//16
f 91//16 90//16 87//16 88//16
f 16//17 95//17 92//17 17//17
f 95//17 94//17 91//17 92//17
f 94//17 93//17 90//17 91//17
f 15//18 98//18 95//18 16//18
f 98//18 97//18 94//18 95//18
f 97//18 96//18 93//18 94//18
f 14//19 101//19 98//19 15//19
f 101//19 100//19 97//19 98//19
f 100//19 99//19 96//19 97//19
f 13//20 104//20 101//20 14//20
f 104//20 103//20 100//20 101//20
f 103//20 102//20 99//20 100//20
f 12//21 107//21 104//21 13//21
f 107//21 106//21 103//21 104//21
f 106//21 105//21 102//21 103//21
f 11//22 110//22 107//22 12//22
f 110//22 109//22 106//22 107//22
f 109//22 108//22 105//22 106//22
f 10//23 113//23 110//23 11//23
f 113//23 112//23 109//23 110//23
f 112//23 111//23 108//23 109//23
f 9//24 59//24 113//24 10//24
f 59//24 58//24 112//24 113//24
f 58//24 57//24 111//24 112//24
f 8//25 116//25 59//25 9//25
f 116//25 115//25 58//25 59//25
f 115//25 114//25 57//25 58//25
f 7//26 119//26 116//26 8//26
f 119//26 118//26 115//26 116//26
f 118//26 117//26 114//26 115//26
f 6//27 122//27 119//27 7//27
f 122//27 121//27 118//27 119//27
f 121//27 120//27 117//27 118//27
f 5//28 125//28 122//28 6//28
f 125//28 124//28 121//28 122//28
f 124//28 123//28 120//28 121//28
f 4//29 128//29 125//29 5//29
f 128//29 127//29 124//29 125//29
f 127//29 126//29 123//29 124//29
f 3//30 35//30 128//30 4//30
f 35//30 34//30 127//30 128//30
f 34//30 33//30 126//30 127//30
f 32//31 44//31 39//31 1//31
f 44//31 43//31 40//31 39//31
f 43//31 42//31 41//31 40//31
f 2//32 38//32 35//32 3//32
f 38//32 37//32 34//32 35//32
f 37//32 36//32 33//32 34//32
f 45//33 48//33 51//33 54//33 60//33 63//33 66//33 69//33 72//33 75//33 78//33 81//33 84//33 87//33 90//33 93//33 96//33 99//33 102//33 105//33 108//33 111//33 57//33 114//33 117//33 120//33 123//33 126//33 33//33 36//33 41//33 42//33
